<svg xmlns="http://www.w3.org/2000/svg" width="128" height="128" viewBox="0 0 128 128">
  <title>LINE GRAPH</title>
  <g>
    <path d="M121.693,4.557H110.518a1.75,1.75,0,0,0,0,3.5h6.951L91.887,33.639a1.728,1.728,0,0,0-.327.454L73.986,69.169,38.031,87.613a1.75,1.75,0,1,0,1.6,3.114l36.465-18.7a1.751,1.751,0,0,0,.765-.774l17.7-35.335,25.382-25.382v6.951a1.75,1.75,0,0,0,3.5,0V6.307A1.75,1.75,0,0,0,121.693,4.557Z" fill="#477b9e"/>
    <circle cx="38.83" cy="89.17" r="5.939" fill="#f87c68"/>
    <circle cx="75.295" cy="70.465" r="5.939" fill="#7fb3fa"/>
    <circle cx="93.124" cy="34.876" r="5.939" fill="#64d465"/>
    <path d="M121.693,119.943H104.212v-5.4a1.75,1.75,0,0,0-3.5,0v5.4H84.981v-5.4a1.75,1.75,0,0,0-3.5,0v5.4H65.75v-5.4a1.75,1.75,0,0,0-3.5,0v5.4H46.519v-5.4a1.75,1.75,0,0,0-3.5,0v5.4H27.288v-5.4a1.75,1.75,0,0,0-3.5,0v5.4H8.057V104.212h5.4a1.75,1.75,0,0,0,0-3.5h-5.4V84.981h5.4a1.75,1.75,0,0,0,0-3.5h-5.4V65.75h5.4a1.75,1.75,0,0,0,0-3.5h-5.4V46.519h5.4a1.75,1.75,0,0,0,0-3.5h-5.4V27.288h5.4a1.75,1.75,0,1,0,0-3.5h-5.4V6.307a1.75,1.75,0,0,0-3.5,0V121.693a1.75,1.75,0,0,0,1.75,1.75H121.693a1.75,1.75,0,0,0,0-3.5Z" fill="#477b9e"/>
  </g>
</svg>
