<svg xmlns="http://www.w3.org/2000/svg" width="128" height="128" viewBox="0 0 128 128">
  <title>TRANSFER</title>
  <g>
    <circle cx="64" cy="64" r="24.199" fill="#f4dd45"/>
    <circle cx="64" cy="64" r="16.6" fill="#fcc101"/>
    <polygon points="95.731 39.803 108.372 39.803 108.372 48.26 121.693 34.939 108.372 21.619 108.372 30.075 95.731 30.075 95.731 39.803" fill="#64d465"/>
    <polygon points="32.269 88.197 19.628 88.197 19.628 79.74 6.307 93.061 19.628 106.381 19.628 97.925 32.269 97.925 32.269 88.197" fill="#64d465"/>
    <path d="M65.361,74v1.815H62.78v-1.9a11.629,11.629,0,0,1-6.609-3.035l2.043-2.525a9.693,9.693,0,0,0,4.566,2.439V65.262c-3.489-.908-5.843-2.156-5.843-5.5,0-3.063,2.354-5.418,5.843-5.843v-1.73h2.581v1.758a10.555,10.555,0,0,1,5.957,2.638l-1.928,2.61a9.287,9.287,0,0,0-4.029-2.128V62.4c3.887.88,6.468,2.213,6.468,5.673C71.829,71.332,69.475,73.715,65.361,74ZM62.78,61.716V57.008a2.678,2.678,0,0,0-2.269,2.439C60.511,60.582,61.249,61.178,62.78,61.716Zm5.5,6.7c0-1.305-.907-1.9-2.922-2.5v5.049C67.291,70.737,68.283,69.659,68.283,68.411Z" fill="#f4dd45"/>
    <path d="M88.473,33.575h-2.1a1.75,1.75,0,1,1,0-3.5h2.1a1.75,1.75,0,0,1,0,3.5Z" fill="#64d465"/>
    <path d="M88.473,39.8h-2.1a1.75,1.75,0,0,1,0-3.5h2.1a1.75,1.75,0,0,1,0,3.5Z" fill="#64d465"/>
    <path d="M39.527,94.425h2.1a1.75,1.75,0,0,1,0,3.5h-2.1a1.75,1.75,0,0,1,0-3.5Z" fill="#64d465"/>
    <path d="M39.527,88.2h2.1a1.75,1.75,0,0,1,0,3.5h-2.1a1.75,1.75,0,1,1,0-3.5Z" fill="#64d465"/>
  </g>
</svg>
